<svg width="145" height="147" viewBox="0 0 145 147" fill="none" xmlns="http://www.w3.org/2000/svg">
<path d="M72.3892 16.5612C97.2392 16.1712 118.519 31.7612 126.579 53.7212C126.729 54.1412 127.039 54.4912 127.449 54.6712C128.709 55.2212 130.179 55.7812 131.769 56.2312C134.889 57.1212 140.329 57.4912 144.199 57.6512C144.569 57.6612 144.839 57.3212 144.769 56.9512C137.169 23.5612 106.779 -1.14878 70.8292 0.041218C32.6992 1.30122 1.55919 32.2212 0.0591936 70.3312C-0.860806 93.5412 9.00919 114.471 25.0692 128.511V70.0012H46.0392V135.471C46.0392 139.161 48.4792 142.401 52.0092 143.481C58.7492 145.521 65.8992 146.621 73.3092 146.621C107.979 146.621 137.039 122.531 144.639 90.1712C144.739 89.7612 144.409 89.3612 143.989 89.3812C140.149 89.5412 134.839 89.9212 131.769 90.8012C130.169 91.2512 128.689 91.8212 127.409 92.3612C126.909 92.5712 126.539 92.9812 126.349 93.4812C118.139 115.141 97.0092 130.451 72.3792 130.061V16.5712L72.3892 16.5612ZM33.0792 61.7812C27.4592 60.8512 22.9292 56.3212 21.9992 50.7012C20.4692 41.4212 28.3692 33.4812 37.6792 35.0012C43.3192 35.9212 47.8592 40.4712 48.7792 46.1012C50.2992 55.4012 42.3592 63.3112 33.0792 61.7812Z" fill="#00143C"/>
</svg>
