<svg width="1290" height="215" viewBox="0 0 1290 215" fill="none" xmlns="http://www.w3.org/2000/svg">
<path d="M103.867 1.05957C155.671 -0.655199 199.523 34.661 210.986 82.5781L211.251 83.7129L211.259 83.748C211.468 84.8522 210.653 85.9745 209.429 85.9414L209.422 85.9404H209.415C203.869 85.7111 195.921 85.1789 191.299 83.8604V83.8594C188.96 83.1972 186.802 82.3753 184.958 81.5703H184.956C184.097 81.1933 183.467 80.4692 183.165 79.624V79.623C171.814 48.7065 142.022 26.6785 107.13 26.8164V188.125C141.708 188.26 171.283 166.626 182.841 136.135V136.134C183.18 135.241 183.832 134.475 184.73 134.039L184.913 133.956C186.774 133.171 188.943 132.334 191.298 131.672L191.733 131.552C196.328 130.334 203.772 129.814 209.106 129.592H209.112C210.379 129.535 211.356 130.723 211.062 131.955L211.062 131.956C200.025 178.953 157.821 213.94 107.468 213.94C96.708 213.94 86.3243 212.343 76.5352 209.38L76.5322 209.379C71.0413 207.699 67.2354 202.656 67.2354 196.899V103.709H39.0664V189.089L37.4082 187.639C14.0855 167.249 -0.25005 136.851 1.08594 103.145L1.14453 101.85C3.97125 47.0935 48.9196 2.87534 103.867 1.05957ZM56.0469 53.3428C43.3292 51.2665 32.5471 62.1025 34.6367 74.7793L34.7695 75.4932C36.2924 82.8241 42.3303 88.668 49.7539 89.8965H49.7529C62.4296 91.9865 73.2666 81.19 71.1904 68.4863C69.936 60.8099 63.7361 54.5971 56.0469 53.3428Z" fill="#00143C" stroke="#00143C" stroke-width="2"/>
<path d="M1253.59 92.2654H1289.6V104.551H1238.38V38.3965H1288.37V50.6824H1253.59V65.0474H1284.31V76.9553H1253.59V92.2654Z" fill="#00143C"/>
<path d="M1208.57 104.551H1192.13L1179.37 86.1225H1178.62H1165.29V104.551H1149.98V38.3965H1178.62C1196.29 38.3965 1207.35 47.5637 1207.35 62.4013C1207.35 72.3245 1202.34 79.6015 1193.74 83.2873L1208.57 104.551ZM1191.85 62.4013C1191.85 55.1242 1187.12 50.8714 1177.77 50.8714H1165.29V73.9311H1177.77C1187.12 73.9311 1191.85 69.5838 1191.85 62.4013Z" fill="#00143C"/>
<path d="M1108.15 104.551L1102.29 90.3753H1071.57L1065.72 104.551H1050.03L1079.51 38.3965H1094.63L1124.22 104.551H1108.15ZM1076.49 78.751H1097.47L1086.98 53.4231L1076.49 78.751Z" fill="#00143C"/>
<path d="M1003.46 105.686C982.954 105.686 967.644 91.4152 967.644 71.4742C967.644 51.5332 982.954 37.2627 1003.56 37.2627C1014.99 37.2627 1024.54 41.421 1030.77 48.9816L1020.95 58.0542C1016.5 52.9508 1010.93 50.3047 1004.31 50.3047C991.932 50.3047 983.143 58.9993 983.143 71.4742C983.143 83.9491 991.932 92.6438 1004.31 92.6438C1010.93 92.6438 1016.5 89.9976 1020.95 84.7997L1030.77 93.8724C1024.54 101.527 1014.99 105.686 1003.46 105.686Z" fill="#00143C"/>
<path d="M859.046 92.2654H895.053V104.551H843.83V38.3965H893.824V50.6824H859.046V65.0474H889.76V76.9553H859.046V92.2654Z" fill="#00143C"/>
<path d="M804.191 38.3965H819.406L790.771 104.551H775.649L747.108 38.3965H763.647L783.777 85.65L804.191 38.3965Z" fill="#00143C"/>
<path d="M706.26 104.551V38.3965H721.57V104.551H706.26Z" fill="#00143C"/>
<path d="M642.641 104.551V50.8714H621.472V38.3965H679.121V50.8714H657.951V104.551H642.641Z" fill="#00143C"/>
<path d="M579.026 104.551V38.3965H594.337V104.551H579.026Z" fill="#00143C"/>
<path d="M515.037 105.685C496.23 105.685 485.078 94.9116 485.078 75.4432V38.3965H500.388V74.8762C500.388 87.4456 505.87 92.6435 515.131 92.6435C524.488 92.6435 529.874 87.4456 529.874 74.8762V38.3965H544.996V75.4432C544.996 94.9116 533.844 105.685 515.037 105.685Z" fill="#00143C"/>
<path d="M423.134 104.551V50.8714H401.965V38.3965H459.614V50.8714H438.445V104.551H423.134Z" fill="#00143C"/>
<path d="M359.756 38.3965H374.878V104.551H362.308L329.325 64.3859V104.551H314.204V38.3965H326.868L359.756 78.5619V38.3965Z" fill="#00143C"/>
<path d="M264.292 104.551V38.3965H279.602V104.551H264.292Z" fill="#00143C"/>
<path d="M1267.5 169.441H1289.6V176.981H1258.17V136.381H1288.85V143.921H1267.5V152.737H1286.35V160.045H1267.5V169.441Z" fill="#00143C"/>
<path d="M1223.46 177.678C1210.87 177.678 1201.48 168.92 1201.48 156.682C1201.48 144.444 1210.87 135.686 1223.52 135.686C1230.53 135.686 1236.39 138.238 1240.22 142.878L1234.19 148.446C1231.46 145.314 1228.04 143.69 1223.98 143.69C1216.38 143.69 1210.99 149.026 1210.99 156.682C1210.99 164.338 1216.38 169.674 1223.98 169.674C1228.04 169.674 1231.46 168.05 1234.19 164.86L1240.22 170.428C1236.39 175.126 1230.53 177.678 1223.46 177.678Z" fill="#00143C"/>
<path d="M1173.4 176.981V136.381H1182.79V176.981H1173.4Z" fill="#00143C"/>
<path d="M1137.46 136.381C1148.3 136.381 1155.09 142.007 1155.09 151.113C1155.09 160.161 1148.3 165.787 1137.46 165.787H1129.28V176.981H1119.88V136.381H1137.46ZM1136.93 158.131C1142.68 158.131 1145.58 155.521 1145.58 151.113C1145.58 146.647 1142.68 144.037 1136.93 144.037H1129.28V158.131H1136.93Z" fill="#00143C"/>
<path d="M1084.64 177.678C1078.2 177.678 1071.7 175.764 1068.11 172.98L1071.3 165.904C1074.72 168.398 1079.82 170.138 1084.69 170.138C1090.26 170.138 1092.52 168.282 1092.52 165.788C1092.52 158.19 1068.92 163.41 1068.92 148.33C1068.92 141.428 1074.49 135.686 1086.03 135.686C1091.13 135.686 1096.35 136.904 1100.12 139.282L1097.22 146.416C1093.45 144.27 1089.57 143.226 1085.97 143.226C1080.4 143.226 1078.26 145.314 1078.26 147.866C1078.26 155.348 1101.86 150.186 1101.86 165.092C1101.86 171.878 1096.24 177.678 1084.64 177.678Z" fill="#00143C"/>
<path d="M1030.42 177.678C1017.6 177.678 1008.21 168.746 1008.21 156.682C1008.21 144.618 1017.6 135.686 1030.42 135.686C1043.18 135.686 1052.63 144.56 1052.63 156.682C1052.63 168.804 1043.18 177.678 1030.42 177.678ZM1030.42 169.674C1037.67 169.674 1043.12 164.396 1043.12 156.682C1043.12 148.968 1037.67 143.69 1030.42 143.69C1023.17 143.69 1017.72 148.968 1017.72 156.682C1017.72 164.396 1023.17 169.674 1030.42 169.674Z" fill="#00143C"/>
<path d="M980.156 136.381H989.552V176.981H980.156V160.335H961.712V176.981H952.316V136.381H961.712V152.389H980.156V136.381Z" fill="#00143C"/>
<path d="M906.628 171.935L901.698 177.677L896.826 173.153C893.114 176.053 888.474 177.677 883.254 177.677C874.322 177.677 867.768 173.037 867.768 166.541C867.768 161.437 870.494 157.899 876.7 154.419C873.742 151.345 872.524 148.735 872.524 145.835C872.524 139.919 877.512 135.859 885.168 135.859C892.186 135.859 896.826 139.455 896.826 145.197C896.826 149.373 894.39 152.447 888.88 155.463L896.304 162.365C897.174 160.567 897.87 158.421 898.334 156.043L905.584 158.305C904.83 161.785 903.612 164.917 901.872 167.527L906.628 171.935ZM885.168 142.007C882.384 142.007 880.76 143.573 880.76 145.719C880.76 147.285 881.398 148.445 883.892 150.881C887.894 148.735 889.17 147.227 889.17 145.371C889.17 143.399 887.778 142.007 885.168 142.007ZM883.892 170.601C886.676 170.601 889.286 169.789 891.49 168.223L881.688 159.059C877.976 161.205 876.642 163.061 876.642 165.555C876.642 168.513 879.426 170.601 883.892 170.601Z" fill="#00143C"/>
<path d="M811.866 136.381H821.262V176.981H811.866V160.335H793.422V176.981H784.026V136.381H793.422V152.389H811.866V136.381Z" fill="#00143C"/>
<path d="M744.982 176.981V144.037H731.99V136.381H767.37V144.037H754.378V176.981H744.982Z" fill="#00143C"/>
<path d="M693.764 176.981V136.381H703.16V169.325H723.518V176.981H693.764Z" fill="#00143C"/>
<path d="M668.091 176.981L664.495 168.281H645.645L642.049 176.981H632.421L650.517 136.381H659.797L677.951 176.981H668.091ZM648.661 161.147H661.537L655.099 145.603L648.661 161.147Z" fill="#00143C"/>
<path d="M596.583 169.441H618.681V176.981H587.245V136.381H617.927V143.921H596.583V152.737H615.433V160.045H596.583V169.441Z" fill="#00143C"/>
<path d="M556.644 136.381H566.04V176.981H556.644V160.335H538.2V176.981H528.804V136.381H538.2V152.389H556.644V136.381Z" fill="#00143C"/>
<path d="M459.604 169.441H481.702V176.981H450.266V136.381H480.948V143.921H459.604V152.737H478.454V160.045H459.604V169.441Z" fill="#00143C"/>
<path d="M429.033 176.981H420.216L420.159 152.621L408.211 172.689H403.977L392.087 153.143V176.981H383.271V136.381H391.043L406.239 161.611L421.203 136.381H428.917L429.033 176.981Z" fill="#00143C"/>
<path d="M342.396 177.678C329.578 177.678 320.182 168.746 320.182 156.682C320.182 144.618 329.578 135.686 342.396 135.686C355.156 135.686 364.61 144.56 364.61 156.682C364.61 168.804 355.156 177.678 342.396 177.678ZM342.396 169.674C349.646 169.674 355.098 164.396 355.098 156.682C355.098 148.968 349.646 143.69 342.396 143.69C335.146 143.69 329.694 148.968 329.694 156.682C329.694 164.396 335.146 169.674 342.396 169.674Z" fill="#00143C"/>
<path d="M292.132 136.381H301.528V176.981H292.132V160.335H273.688V176.981H264.292V136.381H273.688V152.389H292.132V136.381Z" fill="#00143C"/>
</svg>
